<svg width="180" height="67" viewBox="0 0 180 67" fill="none" xmlns="http://www.w3.org/2000/svg">
<path d="M29.1232 0C25.2987 3.95307e-06 21.5116 0.753306 17.9782 2.2169C14.4448 3.68049 11.2343 5.8257 8.52996 8.53006C5.82561 11.2344 3.68041 14.4449 2.21684 17.9784C0.753269 21.5118 -1.44723e-05 25.2988 2.08536e-10 29.1234C6.89132e-06 36.8473 3.06834 44.2549 8.53001 49.7166C13.9917 55.1783 21.3993 58.2466 29.1232 58.2466C36.2218 58.2377 43.0728 55.6364 48.3884 50.9317C53.7041 46.2271 57.1184 39.7429 57.9897 32.698H57.4643C57.4308 32.7021 57.3973 32.7058 57.3636 32.709V32.7166H57.1629H49.1039C48.2617 37.4041 45.7997 41.6469 42.1477 44.704C38.4957 47.7611 33.8859 49.4381 29.1232 49.4423C26.455 49.4423 23.8128 48.9167 21.3477 47.8956C18.8825 46.8745 16.6426 45.3779 14.7558 43.4911C12.8691 41.6044 11.3724 39.3645 10.3513 36.8993C9.33022 34.4341 8.80466 31.792 8.80466 29.1237C8.80466 26.4554 9.33022 23.8133 10.3513 21.3481C11.3724 18.883 12.8691 16.6431 14.7558 14.7563C16.6426 12.8696 18.8825 11.3729 21.3477 10.3518C23.8128 9.33069 26.455 8.80514 29.1232 8.80514C33.9557 8.80782 38.6291 10.5328 42.3045 13.6705C45.9798 16.8081 48.4165 21.153 49.1772 25.9253H58.0571C57.2699 18.8008 53.8829 12.2167 48.5445 7.43345C43.2061 2.65017 36.2911 0.00360746 29.1232 0.000336636V0ZM29.004 12.2122C26.7804 12.2122 24.5786 12.6502 22.5243 13.5011C20.47 14.352 18.6034 15.5992 17.0311 17.1715C15.4588 18.7438 14.2116 20.6104 13.3607 22.6647C12.5098 24.719 12.0718 26.9208 12.0718 29.1444C12.0718 31.3679 12.5098 33.5697 13.3607 35.624C14.2116 37.6783 15.4588 39.5449 17.0311 41.1172C18.6034 42.6895 20.47 43.9367 22.5243 44.7876C24.5786 45.6385 26.7804 46.0765 29.004 46.0765C32.8674 46.0717 36.6129 44.7457 39.619 42.3189C42.625 39.892 44.7107 36.5101 45.5298 32.7345H38.4949C37.7663 34.6632 36.4682 36.3245 34.773 37.4979C33.0777 38.6712 31.0656 39.301 29.004 39.3037C27.6698 39.3037 26.3487 39.0409 25.1162 38.5303C23.8836 38.0198 22.7636 37.2715 21.8203 36.3281C20.8769 35.3847 20.1285 34.2647 19.618 33.0322C19.1074 31.7996 18.8447 30.4785 18.8447 29.1444C18.8447 27.8102 19.1074 26.4892 19.618 25.2566C20.1285 24.024 20.8769 22.904 21.8203 21.9607C22.7636 21.0173 23.8836 20.269 25.1162 19.7584C26.3487 19.2479 27.6698 18.9851 29.004 18.9851C31.136 18.9879 33.2132 19.6614 34.9412 20.9102C36.6692 22.159 37.9606 23.9198 38.6324 25.9433H45.6232C44.8795 22.0803 42.8139 18.5968 39.7812 16.0912C36.7485 13.5855 32.9379 12.214 29.004 12.2122ZM72.8441 12.3717V12.3726C72.745 12.3741 72.646 12.3798 72.5473 12.39H68.5644H68.5375V12.3909C67.6442 12.398 66.7899 12.7578 66.1606 13.3919C65.5314 14.026 65.1782 14.883 65.178 15.7764C65.1783 16.6696 65.5316 17.5266 66.1608 18.1606C66.79 18.7946 67.6443 19.1543 68.5375 19.1614V19.1623H68.5644H91.3644H91.5653V19.1547C91.5989 19.1516 91.6325 19.1479 91.666 19.1437H95.6711H95.8719V19.1361C96.7336 19.085 97.5433 18.7067 98.1354 18.0786C98.7275 17.4504 99.0574 16.6199 99.0576 15.7567C99.0566 14.8941 98.7263 14.0643 98.1343 13.4368C97.5423 12.8094 96.7331 12.4315 95.8719 12.3804V12.3703H95.6711H72.871H72.8441L72.8441 12.3717ZM135.962 12.3862C135.069 12.3865 134.212 12.7398 133.578 13.369C132.944 13.9983 132.584 14.8525 132.577 15.7457V15.7726V35.098L111.779 13.6458C111.461 13.2631 111.064 12.955 110.614 12.7434C110.164 12.5317 109.673 12.4217 109.176 12.4212C108.283 12.4215 107.426 12.7748 106.792 13.404C106.158 14.0333 105.798 14.8875 105.791 15.7807V15.8075V38.6077V38.8085H105.798C105.801 38.8421 105.804 38.8756 105.809 38.9091V42.9143V43.1151H105.815C105.866 43.9768 106.245 44.7864 106.873 45.3786C107.501 45.9707 108.332 46.3006 109.195 46.3008C110.058 46.2997 110.887 45.9695 111.515 45.3775C112.142 44.7854 112.52 43.9763 112.571 43.1151H112.581V42.9143V23.599L133.351 45.0212L133.358 45.0146C133.675 45.4049 134.075 45.7198 134.529 45.9362C134.982 46.1527 135.479 46.2654 135.982 46.2661C136.844 46.265 137.674 45.9348 138.301 45.3428C138.929 44.7508 139.307 43.9416 139.358 43.0804H139.368V42.8797V20.0795L139.366 20.0526C139.365 19.9535 139.359 19.8544 139.349 19.7558V15.7728V15.746C139.342 14.8527 138.982 13.9983 138.348 13.3691C137.714 12.7398 136.857 12.3866 135.963 12.3864L135.962 12.3862ZM153.786 12.4419V12.4429C153.687 12.4443 153.588 12.4501 153.489 12.4602H149.506H149.479V12.4611C148.586 12.4682 147.732 12.828 147.103 13.4621C146.473 14.0962 146.12 14.9533 146.12 15.8466C146.12 16.7399 146.473 17.5968 147.103 18.2308C147.732 18.8648 148.586 19.2245 149.479 19.2316V19.2325H149.506H159.668V38.6296V38.8304H159.674C159.677 38.864 159.681 38.8975 159.685 38.931V42.9362V43.137H159.692C159.743 43.9987 160.121 44.8083 160.75 45.4004C161.378 45.9925 162.208 46.3224 163.071 46.3227C163.934 46.3216 164.764 45.9914 165.391 45.3994C166.019 44.8073 166.397 43.9982 166.448 43.137H166.458V42.9362V20.136L166.456 20.1092C166.454 20.01 166.449 19.911 166.439 19.8124V19.2325H172.307H172.508V19.2249C172.541 19.2218 172.575 19.2181 172.608 19.2139H176.614H176.814V19.2063C177.676 19.1552 178.486 18.7769 179.078 18.1488C179.67 17.5206 180 16.6901 180 15.8269C179.999 14.9643 179.669 14.1345 179.077 13.507C178.485 12.8796 177.676 12.5017 176.814 12.4506V12.4405H176.614H153.813H153.786L153.786 12.4419ZM72.8441 25.9176V25.9185C72.745 25.9199 72.646 25.9257 72.5473 25.9357H68.5644H68.5375V25.9366C67.6442 25.9437 66.7899 26.3035 66.1606 26.9376C65.5314 27.5717 65.1782 28.4287 65.178 29.3221C65.1783 30.2153 65.5316 31.0723 66.1608 31.7063C66.79 32.3403 67.6443 32.7 68.5375 32.7071V32.708H68.5644H91.3646H91.5653V32.7005C91.5989 32.6973 91.6325 32.6936 91.666 32.6894H95.6712H95.8719V32.6819C96.7336 32.6307 97.5432 32.2524 98.1353 31.6243C98.7274 30.9962 99.0574 30.1657 99.0576 29.3025C99.0566 28.4398 98.7263 27.6101 98.1343 26.9826C97.5423 26.3552 96.7331 25.9773 95.872 25.9262V25.9161H95.6712H72.871H72.8441L72.8441 25.9176ZM72.8441 39.4464V39.4473C72.745 39.4487 72.646 39.4544 72.5473 39.4645H68.5644H68.5375V39.4654C67.6442 39.4725 66.7899 39.8323 66.1606 40.4664C65.5314 41.1005 65.1782 41.9575 65.178 42.8509C65.1783 43.7441 65.5316 44.6011 66.1608 45.2351C66.79 45.8691 67.6443 46.2288 68.5375 46.2359V46.2368H68.5644H91.3646H91.5653V46.2292C91.5989 46.2261 91.6325 46.2224 91.666 46.2182H95.6712H95.8719V46.2106C96.7336 46.1595 97.5433 45.7812 98.1354 45.1531C98.7275 44.5249 99.0574 43.6944 99.0576 42.8312C99.0566 41.9685 98.7263 41.1388 98.1343 40.5113C97.5423 39.8839 96.7331 39.506 95.8719 39.4549V39.4448H95.6712H72.871H72.8441L72.8441 39.4464ZM67.8543 51.6606C67.1717 51.6606 66.5171 51.9318 66.0345 52.4144C65.5518 52.8971 65.2807 53.5517 65.2807 54.2343C65.2807 54.9169 65.5519 55.5715 66.0345 56.0541C66.5172 56.5367 67.1718 56.8079 67.8543 56.8079C68.2942 56.8073 68.7265 56.6939 69.1101 56.4787C69.4937 56.2634 69.8157 55.9534 70.0454 55.5783H138.304L142.529 58.0526H110.6C110.373 57.6668 110.049 57.3468 109.661 57.1242C109.272 56.9017 108.833 56.7843 108.385 56.7837C107.702 56.7837 107.048 57.0549 106.565 57.5376C106.082 58.0202 105.811 58.6749 105.811 59.3574C105.811 60.04 106.082 60.6946 106.565 61.1772C107.048 61.6599 107.702 61.931 108.385 61.931C108.847 61.931 109.3 61.8068 109.697 61.5714C110.094 61.3359 110.421 60.998 110.643 60.5929H130.409L124.627 63.0496H92.2758C92.0546 62.6442 91.7284 62.3058 91.3314 62.0699C90.9344 61.834 90.4813 61.7092 90.0195 61.7087C89.3369 61.7087 88.6823 61.9799 88.1996 62.4626C87.717 62.9452 87.4458 63.5999 87.4459 64.2824C87.4459 64.965 87.717 65.6196 88.1997 66.1022C88.6823 66.5849 89.3369 66.856 90.0195 66.856C90.4666 66.8555 90.9059 66.7384 91.294 66.5164C91.6822 66.2945 92.0058 65.9752 92.233 65.59H125.408V65.5765L137.138 60.5929H159.236C159.522 61.3736 160.041 62.0476 160.723 62.5239C161.405 63.0002 162.216 63.256 163.048 63.2567C164.125 63.2567 165.159 62.8286 165.921 62.0665C166.683 61.3045 167.111 60.2709 167.111 59.1931C167.111 58.6594 167.006 58.131 166.802 57.6379C166.598 57.1449 166.298 56.6969 165.921 56.3195C165.544 55.9421 165.096 55.6428 164.603 55.4385C164.11 55.2343 163.581 55.1292 163.048 55.1292C162.169 55.1298 161.315 55.415 160.612 55.9421C159.909 56.4691 159.396 57.2096 159.15 58.0527H147.768L139.206 53.0381H70.1317C69.9137 52.6227 69.5863 52.2749 69.1849 52.0321C68.7836 51.7894 68.3234 51.6609 67.8543 51.6606ZM67.8193 53.4863C68.0348 53.4863 68.2415 53.5719 68.3939 53.7244C68.5463 53.8768 68.6319 54.0835 68.632 54.299C68.632 54.4057 68.611 54.5114 68.5701 54.61C68.5293 54.7087 68.4694 54.7983 68.394 54.8737C68.3185 54.9492 68.2289 55.0091 68.1303 55.0499C68.0317 55.0908 67.926 55.1118 67.8193 55.1118C67.7125 55.1118 67.6068 55.0908 67.5082 55.05C67.4096 55.0091 67.32 54.9493 67.2445 54.8738C67.169 54.7983 67.1091 54.7087 67.0683 54.6101C67.0274 54.5114 67.0064 54.4057 67.0064 54.299C67.0064 54.1923 67.0275 54.0866 67.0683 53.988C67.1092 53.8894 67.1691 53.7998 67.2445 53.7243C67.32 53.6488 67.4096 53.589 67.5082 53.5481C67.6068 53.5073 67.7125 53.4863 67.8193 53.4863ZM162.992 58.0119C163.333 58.0119 163.659 58.1471 163.9 58.3878C164.14 58.6284 164.275 58.9548 164.275 59.2951C164.276 59.4637 164.242 59.6306 164.178 59.7863C164.113 59.942 164.019 60.0835 163.9 60.2027C163.781 60.3219 163.639 60.4164 163.483 60.4809C163.328 60.5454 163.161 60.5786 162.992 60.5786C162.824 60.5787 162.657 60.5455 162.501 60.481C162.345 60.4165 162.204 60.3219 162.085 60.2027C161.965 60.0835 161.871 59.942 161.806 59.7863C161.742 59.6306 161.709 59.4637 161.709 59.2951C161.709 59.1266 161.742 58.9597 161.807 58.804C161.871 58.6483 161.966 58.5069 162.085 58.3877C162.204 58.2686 162.345 58.174 162.501 58.1096C162.657 58.0451 162.824 58.0119 162.992 58.0119ZM108.35 58.6094C108.565 58.6094 108.772 58.6951 108.925 58.8475C109.077 58.9999 109.163 59.2066 109.163 59.4221C109.163 59.5289 109.142 59.6345 109.101 59.7332C109.06 59.8318 109 59.9214 108.925 59.9969C108.849 60.0723 108.76 60.1322 108.661 60.1731C108.562 60.2139 108.457 60.2349 108.35 60.235C108.243 60.235 108.137 60.2139 108.039 60.1731C107.94 60.1323 107.851 60.0724 107.775 59.9969C107.7 59.9214 107.64 59.8318 107.599 59.7332C107.558 59.6346 107.537 59.5289 107.537 59.4221C107.537 59.3154 107.558 59.2097 107.599 59.1111C107.64 59.0125 107.7 58.9229 107.775 58.8474C107.851 58.772 107.94 58.7121 108.039 58.6713C108.137 58.6304 108.243 58.6094 108.35 58.6094ZM89.9844 63.5344C90.2 63.5345 90.4067 63.6201 90.5591 63.7725C90.7115 63.9249 90.7971 64.1316 90.7971 64.3471C90.7971 64.4539 90.7761 64.5596 90.7353 64.6582C90.6944 64.7568 90.6346 64.8464 90.5591 64.9219C90.4837 64.9973 90.3941 65.0572 90.2954 65.0981C90.1968 65.1389 90.0912 65.16 89.9844 65.16C89.8777 65.16 89.772 65.139 89.6734 65.0981C89.5747 65.0573 89.4851 64.9974 89.4096 64.9219C89.3342 64.8464 89.2743 64.7568 89.2334 64.6582C89.1926 64.5596 89.1716 64.4539 89.1716 64.3471C89.1716 64.2404 89.1926 64.1347 89.2335 64.0361C89.2743 63.9375 89.3342 63.8479 89.4097 63.7724C89.4852 63.697 89.5748 63.6371 89.6734 63.5963C89.772 63.5554 89.8777 63.5344 89.9844 63.5344Z" fill="white"/>
</svg>
